# xmcd CD database file
#
# Track frame offsets:
#	150
#	16664
#	35071
#	71744
#	88533
#	100798
#	117089
#	160729
#	185864
#	212353
#	238257
#
# Disc length: 3187 seconds
#
# Revision: 0
# Processed by: cddbd v1.4PL0 Copyright (c) Steve Scherf et al.
# Submitted via: CDex 1.50
#
DISCID=8d0c710b
DTITLE=John O'Leary - As Blue As I Can Be
DYEAR=2002
DGENRE=Blues
TTITLE0=Give Me A Reason
TTITLE1=Ain't Gonna Call
TTITLE2=19 Years Old
TTITLE3=Roadhouse Man
TTITLE4=Downtown Walk
TTITLE5=Say What You Mean
TTITLE6=Drinkin' Again
TTITLE7=BluesTrain
TTITLE8=Freedom Road
TTITLE9=Divin' Duck
TTITLE10=Ha, ha
EXTD=YEAR: 2002
EXTT0=
EXTT1=
EXTT2=
EXTT3=
EXTT4=
EXTT5=
EXTT6=
EXTT7=
EXTT8=
EXTT9=
EXTT10=
PLAYORDER=
